<?xml version="1.0" encoding="UTF-8" standalone="no"?>
<!-- Created with matplotlib (http://matplotlib.org/) -->

<svg
   xmlns:dc="http://purl.org/dc/elements/1.1/"
   xmlns:cc="http://creativecommons.org/ns#"
   xmlns:rdf="http://www.w3.org/1999/02/22-rdf-syntax-ns#"
   xmlns:svg="http://www.w3.org/2000/svg"
   xmlns="http://www.w3.org/2000/svg"
   xmlns:sodipodi="http://sodipodi.sourceforge.net/DTD/sodipodi-0.dtd"
   xmlns:inkscape="http://www.inkscape.org/namespaces/inkscape"
   height="100"
   version="1.1"
   viewBox="0 0 80 80"
   width="100"
   id="svg2"
   inkscape:version="0.48.2 r9819"
   sodipodi:docname="logo_white.svg">
  <metadata
     id="metadata23">
    <rdf:RDF>
      <cc:Work
         rdf:about="">
        <dc:format>image/svg+xml</dc:format>
        <dc:type
           rdf:resource="http://purl.org/dc/dcmitype/StillImage" />
        <dc:title></dc:title>
      </cc:Work>
    </rdf:RDF>
  </metadata>
  <sodipodi:namedview
     pagecolor="#ffffff"
     bordercolor="#666666"
     borderopacity="1"
     objecttolerance="10"
     gridtolerance="10"
     guidetolerance="10"
     inkscape:pageopacity="0"
     inkscape:pageshadow="2"
     inkscape:window-width="1354"
     inkscape:window-height="897"
     id="namedview21"
     showgrid="false"
     inkscape:zoom="1.7605365"
     inkscape:cx="164.2851"
     inkscape:cy="147.91257"
     inkscape:window-x="0"
     inkscape:window-y="0"
     inkscape:window-maximized="0"
     inkscape:current-layer="svg2" />
  <defs
     id="defs4"
     style="stroke-linecap:butt;stroke-linejoin:round">
    <style
       type="text/css"
       id="style6">
*{stroke-linecap:butt;stroke-linejoin:round;}
  </style>
  </defs>
  <g
     id="line2d_1"
     style="stroke:#6f5499;stroke-linecap:butt;stroke-linejoin:round;stroke-opacity:1;stroke-width:1.91175481;stroke-miterlimit:4;stroke-dasharray:none"
     transform="matrix(0.2763085,0,0,0.4461134,-16.690475,-25.815955)">
    <path
       clip-path="url(#p124b8dd147)"
       d="M 349.341,156.343 144.977,159.251 343.817,129.556 145.834,165.138 327.679,104.796 147.724,171.201 302.197,83.9218 150.965,177.471 269.367,68.4765 155.957,183.852 231.74,59.5616 163.094,190.105 192.212,57.7524 172.675,195.849 153.78,63.059 184.809,200.581 119.293,74.9353 199.345,203.725 91.2302,92.3349 215.818,204.696 71.5016,113.809 233.442,202.977 61.311,137.636 251.136,198.192 61.0802,161.969 267.591,190.183 70.4411,184.992 281.378,179.059 88.2972,205.066 291.078,165.229 112.944,220.857 295.428,149.401 142.235,231.426 293.468,132.553 173.785,236.292 284.666,115.867 205.171,235.443 269.02,100.643 234.142,229.308 247.108,88.1871"
       style="fill:none;stroke:#6f5499;stroke-linecap:square;stroke-linejoin:round;stroke-opacity:1;stroke-width:1.91175481;stroke-miterlimit:4;stroke-dasharray:none"
       id="path14"
       inkscape:connector-curvature="0" />
  </g>
  <defs
     id="defs16">
    <clipPath
       id="p124b8dd147">
      <rect
         height="223.2"
         width="334.79999"
         x="54"
         y="28.799999"
         id="rect19"
         style="stroke-linecap:butt;stroke-linejoin:round" />
    </clipPath>
  </defs>
</svg>
